<svg id="Layer_1" data-name="Layer 1" xmlns="http://www.w3.org/2000/svg" viewBox="0 0 194 100">
  <defs>
    <style>
      .cls-1 {
        fill: #ec652a;
      }

      .cls-1, .cls-3 {
        fill-rule: evenodd;
      }

      .cls-2, .cls-3 {
        fill: #fff;
      }
    </style>
  </defs>
  <title>fpkids</title>
  <path id="circle_stroke_3" class="cls-1" d="M51.56,94.62c-21.63,0-40.1-17.54-42-39.94C7.43,30.7,24.51,9.54,47.6,7.5c1.2-.11,2.41-.16,3.61-.16,21.63,0,40.1,17.54,42,39.94,2.09,24-15,45.14-38.09,47.18C54,94.56,52.76,94.62,51.56,94.62ZM51.21,8.33c-1.17,0-2.35.05-3.52.16-22.55,2-39.23,22.67-37.19,46.1,1.9,21.89,19.94,39,41.06,39,1.17,0,2.35-.05,3.52-.16,22.55-2,39.23-22.67,37.19-46.1C90.37,25.48,72.33,8.33,51.21,8.33Z"/>
  <path id="circle_stroke_2" class="cls-1" d="M52.33,98.07c-21.63,0-40.1-17.54-42-39.94C8.2,34.16,25.29,13,48.38,11c1.2-.11,2.41-.16,3.61-.16C73.62,10.8,92.09,28.34,94,50.74c2.08,24-15,45.14-38.09,47.18C54.74,98,53.53,98.07,52.33,98.07ZM52,11.79c-1.17,0-2.35.05-3.52.16C25.92,13.94,9.23,34.62,11.27,58c1.9,21.89,19.94,39,41.06,39,1.17,0,2.35-.05,3.52-.16,22.54-2,39.23-22.67,37.19-46.1C91.14,28.93,73.11,11.79,52,11.79Z"/>
  <path id="circle_stroke_1" class="cls-1" d="M44.23,95.05c-20,0-37-15.87-38.73-36.14C3.61,37.18,19.44,18,40.77,16.09c1.13-.1,2.27-.15,3.4-.15,20,0,37,15.87,38.73,36.14C84.79,73.81,69,93,47.63,94.9,46.5,95,45.36,95.05,44.23,95.05ZM44.17,16.9c-1.1,0-2.22,0-3.32.15C20.05,18.89,4.62,37.63,6.47,58.83,8.19,78.6,24.78,94.09,44.23,94.09c1.1,0,2.21,0,3.31-.15,20.81-1.83,36.24-20.57,34.39-41.78C80.22,32.39,63.63,16.9,44.17,16.9Z"/>
  <path id="kids_bg" class="cls-1" d="M184.77,56.94c2.73,5.36,1.61,11.7-2.92,16.55a16.43,16.43,0,0,1-8.68,4.61,27.69,27.69,0,0,1-16.61-2,47.75,47.75,0,0,1-6.45-4,24.57,24.57,0,0,1-16.77,7.37H133a22.84,22.84,0,0,1-10.86-2.74l0,.13A5.93,5.93,0,0,1,121,81.49c-2.32,3.36-6.18,5.61-9.63,5.61a6.73,6.73,0,0,1-3.34-.84c-1.19-.68-5.8-4.71-10.52-8.94,0,.59-.07,1.19-.13,1.78-.39,3.84-4.77,4.08-6.2,4.16h-.25a19.67,19.67,0,0,1-4.78-.34,17.78,17.78,0,0,1-4.49-1.26c-3-1.42-2.83-5.18-2.74-7.2,0-.33,0-.64,0-.88,0-2,.06-4.06.14-6,.08-1.78.16-3.62.15-5.33q0-6.66-.07-13.31c0-1.41,0-2.82,0-4.22,0-2.69.08-5.23-.07-7.79-.08-1.53-.18-3.29-.23-4.93a6.05,6.05,0,0,0-.06-.69A7.69,7.69,0,0,1,79,28.1c.93-3,4.76-3.75,6.87-3.75h.34a43.86,43.86,0,0,1,7.23,1,18.86,18.86,0,0,1,5.78,2.39c2.75,1.78,2.18,4.72,1.85,6.13,1.12-1.53,2.25-3.07,3.35-4.62l.79-1.11c1-1.37,2-2.79,3.06-4.17l.27-.35c.93-1.22,2.32-3,4.87-3a5.85,5.85,0,0,1,2.41.55,18,18,0,0,1,5.62,4.2l1,1a46.32,46.32,0,0,1,11.19-4,23.37,23.37,0,0,1,4.63-.46c5.71,0,12.14,2.09,15.91,6.64.52-.59,1.14-1.24,1.88-2a17.49,17.49,0,0,1,12.22-4.69c7.19,0,13.84,3.8,16.94,9.68,3.24,6.15,3,14.84-.54,21.13C184.13,53.61,183.71,54.86,184.77,56.94Z"/>
  <polygon id="star" class="cls-1" points="79.03 3.78 79.09 12.16 87.03 14.69 79.14 17.34 79.2 25.73 74.26 18.99 66.36 21.65 71.2 14.82 66.26 8.08 74.19 10.61 79.03 3.78"/>
  <path id="star_outline" class="cls-2" d="M79.81,27.57,74,19.69,64.82,22.8l5.65-8L64.7,7,74,9.91l5.65-8,.07,9.8,9.26,2.94-9.21,3.1Zm-5.32-9.29,4.11,5.61-.05-7,6.58-2.22L78.5,12.6l-.05-7-4,5.68L67.82,9.2l4.12,5.61-4,5.69Z"/>
  <path id="circle" class="cls-1" d="M89.31,49.55c1.92,22-14.64,41.48-37,43.46s-42-14.29-43.91-36.32,14.64-41.49,37-43.46S87.39,27.51,89.31,49.55Z"/>
  <path id="fp" class="cls-3" d="M81.65,41.39a31,31,0,0,0-2.59-5.19A35.72,35.72,0,0,0,61.15,21.81a44.17,44.17,0,0,0-4.46-1.2,38.16,38.16,0,0,0-21.81,1.69,29.35,29.35,0,0,0-6.37,3.44C20.3,31.67,15,39.45,13.5,49.06c-1.41,9.27,2.1,18.9,7.73,25.7C29.31,84.52,42.66,90,59.55,85.43c-.33-1.14-1.25-4.52-1.25-4.52q-1.87-6.8-3.74-13.59l.16,0c3.11,3.52,10.81,3.66,15-.52,3.2-3.22,3.73-7.64,3.07-12A15.68,15.68,0,0,0,71,49.33c-2.7-4.44-5.7-7-10.71-7.53-5.19-.6-10,2.51-11.1,6.65-.11-.26-.87-3.09-1-3.4l-11.33,2.9c-2.07-7.05,1.36-9.33,8.74-11.09L43.94,30.5c-11.75,3-18.4,8.24-15.22,19.56l-5,1.27a11.18,11.18,0,0,0,.34,5.45c1.83-.49,5.86-1.4,6.09-1.41q2.48,9,5,18c1.05,1.35,7.43,3.2,9.6,2.91q-3.19-11.59-6.38-23.19c1-.28,2.9-.76,3.26-.8,1.74,6.3,3.51,12.72,5.24,19,.4,1.46,2.14,6.86,1.83,7.28-.26.25-1.8,0-2.34,0a37.88,37.88,0,0,1-6.51-1.33c-6.35-2.05-10.55-5.53-14.49-11.63a25.48,25.48,0,0,1-3.05-8.07,21.4,21.4,0,0,1-.23-6.27A26.34,26.34,0,0,1,33,33a24.21,24.21,0,0,1,6.84-3.6,25.52,25.52,0,0,1,12.88-.82C61,29.73,66.87,33.78,71.57,41A27.27,27.27,0,0,1,75.16,51.6a33.88,33.88,0,0,1,.22,6.27C75,64.12,71.7,69.16,67.51,73.32a57.36,57.36,0,0,1-5,4c-.22.28-.2.22-.23.71.49,1.88,1.29,6,2.06,5.64A17.79,17.79,0,0,0,68,81.5a36.38,36.38,0,0,0,6.28-5.32c6.55-7.05,9.08-13.13,9.45-23.62A32.52,32.52,0,0,0,81.65,41.39ZM51.38,54.53c.06-2,.63-4.27,2-5.56a3.15,3.15,0,0,1,1.28-.8c3.93-1.09,5.92-.18,7.61,2.32,2.07,3.06,3.08,9.05,2,11.65a5.89,5.89,0,0,1-2.62,2.57C56.08,67.68,51.2,59.93,51.38,54.53Z"/>
  <path id="k" class="cls-2" d="M108.93,69c.88,1,1.76,2,2.61,2.94s1.68,1.8,2.45,2.59,1.45,1.44,2,2,.88.9.81,1.25-.44.73-1.09,1.15a7.32,7.32,0,0,1-1.39.77,10.71,10.71,0,0,1-1.6.55,6.21,6.21,0,0,1-2.52.47,4.57,4.57,0,0,1-2.78-1.27L105.83,78q-1-.9-2.27-2.08T101,73.41c-.9-.89-7.08-7.51-7.87-8.39q-.23,3.28-.38,6t-.27,5a1.22,1.22,0,0,1-.21,1,1.42,1.42,0,0,1-.92.37,6.62,6.62,0,0,1-1.54-.1l-2-.31a7.6,7.6,0,0,1-3.28-1.05,3.22,3.22,0,0,1-1.19-2.56q-.16-1.71-.25-4.48t-.12-6.12c0-2.23,0-4.57,0-7s.07-4.85.14-7.22.15-4.59.24-6.71.06-8.77.19-10.33a2.37,2.37,0,0,1,.94-1.82,3.25,3.25,0,0,1,2.16-.16,20.63,20.63,0,0,1,3.41.74,21.25,21.25,0,0,1,3.18.82c.52.26,1.79.39,2.1.59s1,.38,1.14.62a1.55,1.55,0,0,1,.25.83c0,.31-1.1,6.11-1.17,6.54q-.41,2.57-.74,5.84t-.68,7.16q1.73-2.49,3.76-5.34t3.95-5.61q1.92-2.76,3.58-5.24c1.11-1.65,6.06-7.86,6.76-9q.68-1.17,1.4-1.26a2.92,2.92,0,0,1,1.92.64,9.08,9.08,0,0,1,2,1.81,25.2,25.2,0,0,1,1.61,2.26,4.57,4.57,0,0,1,.52,2.05,6.79,6.79,0,0,1-.72,2.66c-.58,1.33-5.44,7.62-6.48,9.29S110.21,48.28,109,50s-2.57,3.51-3.94,5.26-2.67,3.4-3.91,4.94C101.88,61.23,108,68,108.93,69Z"/>
  <path id="i" class="cls-2" d="M121.59,52.45a1.41,1.41,0,0,1,.08,1.07c-.22.82-.46,1.75-.71,2.8s-.5,2.15-.74,3.32-.47,2.34-.69,3.56-.43,2.4-.64,3.55-.39,2.25-.55,3.28-.29,1.95-.41,2.75a1,1,0,0,1-.39.63,2.45,2.45,0,0,1-1.18.12l-1.73-.15a10.42,10.42,0,0,1-1.57-.27,2.07,2.07,0,0,1-1.11-.53,1.48,1.48,0,0,1-.28-1c0-.61,0-1.4,0-2.38s.09-2.05.16-3.22.18-2.4.3-3.69.24-2.57.38-3.81.28-2.43.45-3.54.32-2.09.47-2.94a1.47,1.47,0,0,1,.72-1,3.25,3.25,0,0,1,1.59-.14,18,18,0,0,1,2.35.33,17,17,0,0,1,2.25.6A2.73,2.73,0,0,1,121.59,52.45Z"/>
  <path id="d" class="cls-2" d="M126,32a29.7,29.7,0,0,1,5.06-2,27.88,27.88,0,0,1,5.62-1.07,18.33,18.33,0,0,1,5.72.39,16.18,16.18,0,0,1,5.35,2.34,16,16,0,0,1,4.52,4.79,16.29,16.29,0,0,1,2.37,5.51,20.2,20.2,0,0,1,.42,6.43,25.25,25.25,0,0,1-1.61,6.84,27.62,27.62,0,0,1-3.72,6.69,32.33,32.33,0,0,1-5.88,6,35.54,35.54,0,0,1-8.11,4.75,6.41,6.41,0,0,1-5.16.22,24.39,24.39,0,0,1-2.5-1q-1.08-.53-2.49-1.33l-1-.73a4.26,4.26,0,0,1-.85-.85,3.49,3.49,0,0,1-.57-1.26,8.86,8.86,0,0,1-.19-2l-1-31.17A29.9,29.9,0,0,1,126,32ZM138.2,60.65a25.1,25.1,0,0,0,3.81-5.3,20.65,20.65,0,0,0,2-5.28,18,18,0,0,0,.44-4.74,8.91,8.91,0,0,0-1.23-4.52,5.36,5.36,0,0,0-3.31-2.08,7.87,7.87,0,0,0-5.23.87q-.9,6.57-1.42,12.93t-1,12.82A25.89,25.89,0,0,0,138.2,60.65Z"/>
  <path id="s" class="cls-2" d="M153,62.82a8,8,0,0,1,1.92-.35,8.77,8.77,0,0,1,1.9.1,6,6,0,0,1,1.69.54,25.24,25.24,0,0,0,7.39,2.3q3.07.34,4.28-.9a.63.63,0,0,0,.1-.95,4.41,4.41,0,0,0-1.35-1.13q-1-.59-2.39-1.28l-3-1.41c-1-.49-2.1-1-3.14-1.51a27.54,27.54,0,0,1-2.89-1.65,14.75,14.75,0,0,1-2.61-2.1,10.72,10.72,0,0,1-2-2.71,10.6,10.6,0,0,1-1-3.29,11.38,11.38,0,0,1,.11-3.81A16,16,0,0,1,153,41a27.36,27.36,0,0,1,2-4,27.91,27.91,0,0,1,2.64-3.74,23.19,23.19,0,0,1,3.07-3.06,9.94,9.94,0,0,1,1.43-1,8.53,8.53,0,0,1,2-.87,10.68,10.68,0,0,1,2.42-.43,11.62,11.62,0,0,1,2.81.15,35.17,35.17,0,0,1,4.53,1.34,14.81,14.81,0,0,1,3.89,2.06,7.23,7.23,0,0,1,1.67,1.58,7.09,7.09,0,0,1,.93,1.68,8,8,0,0,1,.45,1.64c.08.53.15,1,.21,1.53a27.35,27.35,0,0,1-.12,2.92q-.15,1.6-.38,3.23c-.16,1.09-.35,2.14-.59,3.15a24.56,24.56,0,0,1-.74,2.66,2.53,2.53,0,0,1-1,1.36,2.43,2.43,0,0,1-1.74,0q-6.78-1.49-6.79-5.58a10.88,10.88,0,0,1,.07-2c.08-.75.17-1.5.26-2.25s.15-1.47.2-2.15a5.69,5.69,0,0,0-.08-1.64c-.1-.41-.28-.64-.54-.67s-.67.2-1.23.7a10.42,10.42,0,0,0-1.56,1.54,16.73,16.73,0,0,0-1.6,2.23A15.77,15.77,0,0,0,163.88,44a9.21,9.21,0,0,0-.61,2.74,6.44,6.44,0,0,0,.36,2.57,4.15,4.15,0,0,0,1.66,2,24.52,24.52,0,0,0,3.38,2.08c1.23.63,2.45,1.24,3.67,1.82s2.37,1.16,3.46,1.74a13.62,13.62,0,0,1,2.76,1.89,5.4,5.4,0,0,1,1.53,2.22,3.87,3.87,0,0,1-.18,2.7,13.43,13.43,0,0,1-1.07,2.36,9.86,9.86,0,0,1-2,2.46,13.61,13.61,0,0,1-3.28,2.12,16.94,16.94,0,0,1-4.83,1.37,18.47,18.47,0,0,1-7.61-.42A25,25,0,0,1,153,67.53q-2.27-1.53-2.48-2.39a1.65,1.65,0,0,1,.73-1.57A9.6,9.6,0,0,1,153,62.82Z"/>
  <polygon id="i_star" class="cls-2" points="115.44 40.02 118.14 43.67 122.41 42.18 119.81 45.93 122.52 49.59 118.22 48.25 115.62 52 115.55 47.42 111.25 46.09 115.51 44.59 115.44 40.02"/>
</svg>
