<?xml version="1.0" encoding="iso-8859-1"?>
<!-- Generator: Adobe Illustrator 18.1.1, SVG Export Plug-In . SVG Version: 6.00 Build 0)  -->
<svg version="1.1" id="welcome" xmlns="http://www.w3.org/2000/svg" xmlns:xlink="http://www.w3.org/1999/xlink" x="0px" y="0px"
	 viewBox="0 0 1733.527 338" style="enable-background:new 0 0 1733.527 338;" xml:space="preserve">
<g>
	<path style="fill-rule:evenodd;clip-rule:evenodd;fill:#FFFFFF;" d="M983.867,221.869c3.545-0.938,7.569-3.161,9.447-5.877
		c5.025-7.242,6.809-26.607,3.305-37.711c-2.852-9.046-7.795-13.46-19.841-13.226c-2.058,0.291-2.865,0.581-4.252,1.472
		c-4.783,2.956-8.194,9.606-9.926,15.677C957.871,198.799,965.679,226.657,983.867,221.869z"/>
	<path style="fill-rule:evenodd;clip-rule:evenodd;fill:#FFFFFF;" d="M1012.502,56.862c3.226-5.567,11.406-19.668,15.337-26.429
		c-11.365-2.88-23.198-4.543-35.384-4.772c-86.481-1.67-158.27,67.63-163.27,156.059c-6.622-0.124-23.981-0.448-30.97-0.579
		c3.27,11.651,7.821,23.113,13.724,34.169c41.854,78.486,135.65,108.264,212.029,68.549c3.166,5.911,11.38,21.298,14.864,27.816
		c8.38-8.972,15.936-19.061,22.414-30.219C1105.884,204.648,1083.873,105.575,1012.502,56.862z M1056.155,201.789
		c-9.261,32.161-21.226,48.996-45.357,65.628c-7.595,5.225-12.74,7.573-22.026,11.482c-3.551,1.499-9.035,3.468-11.993,3.688
		c-2.433,0.414-1.486-12.871-1.414-19.093c0.441-1.486,0.334-1.313,1.201-2.009c5.502-2.62,10.033-4.085,17.222-8.276
		c15.19-9.6,28.427-22.588,34.493-41.635c2.012-6.325,3.342-12.864,4.25-19.577c1.719-12.7,0.811-26.691-1.892-35.758
		c-7.742-25.988-21.135-43.148-43.934-53.37c-6.481-2.906-19.6-9.37-37.27-7.664c-9.023,0.877-14.83,2.534-22.265,5.696
		c-21.477,9.158-36.556,25.669-45.359,47.996c-2.341,5.96-3.287,11.416-4.25,19.592c-1.003,8.509,0.703,21.753,2.364,27.417
		c6.443,22.014,15.661,36.139,32.124,47.504c5.434,3.757,10.839,6.315,17.478,9.31c1.47,0.655,5.676,2.554,6.619,1.961
		c1.194-1.055,0.474-19.172,0.474-23.998v-63.044c-1.076-0.158-6.736-0.172-9.925-0.131v76.89
		c-6.408-0.845-23.088-11.637-25.041-16.659v-59.742c-0.656-0.166-12.857-0.531-18.424-0.49c-0.126-4.109,0.299-10.677,3.307-17.147
		h15.117c-0.193-37.533,22.853-48.667,58.587-48.481v21.064c-22.383-0.408-33.929,3.922-33.547,27.417h34.493
		c0.02,1.05-0.033,10.399,0.08,11.29c6.368-11.913,22.492-17.741,36.776-11.782c13.785,5.767,20.335,15.939,24.56,31.843
		c1.071,4.026,1.463,10.684,0.638,18.171c-1.526,14.037-6.503,27.305-18.109,34.715c-15.111,9.627-36.91,3.092-42.999-10.282h-0.474
		v45.055c0,0-0.046,11.22,0.013,14.99c-51.61,0.683-85.295-26.82-100.649-63.471c-10.688-25.518-13.146-58.113-1.892-85.702
		c11.659-28.59,32.985-48.452,60.947-60.24c6.616-2.791,13.275-4.55,20.791-5.627c26.281-3.764,51.672,5.021,63.371,12.085
		c5.076,3.073,7.115,3.881,11.752,7.257c18.616,13.564,32.027,33.838,39.689,58.763c1.752,5.717,2.491,11.449,3.306,18.128
		C1060.398,177.08,1058.38,194.054,1056.155,201.789z"/>
</g>
<g>
	<g>
		<path style="fill-rule:evenodd;clip-rule:evenodd;fill:#FFFFFF;" d="M1155.476,210.807c-8.067,0-15.33-1.312-21.791-3.935
			c-6.46-2.623-11.923-6.323-16.387-11.101l14.684-15.153c8.065,7.44,16.522,11.159,25.373,11.159c2.74,0,4.973-0.547,6.696-1.645
			c1.722-1.096,2.584-2.584,2.584-4.464c0-0.782-0.176-1.507-0.528-2.173c-0.353-0.665-1.039-1.331-2.056-1.997
			c-1.019-0.665-2.408-1.41-4.171-2.232c-1.762-0.822-4.093-1.78-6.989-2.878c-3.289-1.251-6.246-2.563-8.868-3.935
			c-2.625-1.369-4.856-2.937-6.696-4.699c-1.841-1.762-3.271-3.777-4.287-6.049c-1.019-2.271-1.527-4.934-1.527-7.988
			c0-4.071,0.881-7.83,2.644-11.277c1.762-3.445,4.188-6.402,7.282-8.869c3.093-2.467,6.773-4.385,11.042-5.756
			c4.268-1.369,8.908-2.056,13.92-2.056c7.283,0,13.724,1.098,19.324,3.289c5.598,2.193,10.396,5.169,14.39,8.928l-14.097,15.741
			c-3.133-2.74-6.48-4.934-10.043-6.578c-3.564-1.645-7.459-2.467-11.688-2.467c-2.742,0-4.915,0.569-6.52,1.703
			c-1.605,1.136-2.408,2.525-2.408,4.17c0,0.863,0.195,1.586,0.588,2.173c0.391,0.587,1.075,1.195,2.056,1.821
			c0.979,0.627,2.367,1.333,4.17,2.114c1.801,0.784,4.111,1.724,6.931,2.819c3.131,1.175,6.009,2.467,8.634,3.876
			c2.623,1.41,4.875,2.996,6.755,4.757c1.879,1.762,3.348,3.817,4.404,6.167c1.058,2.35,1.586,5.052,1.586,8.105
			c0,4.229-0.862,8.087-2.584,11.57c-1.724,3.485-4.132,6.481-7.225,8.986c-3.095,2.508-6.795,4.445-11.101,5.814
			C1165.264,210.121,1160.564,210.807,1155.476,210.807z"/>
		<path style="fill-rule:evenodd;clip-rule:evenodd;fill:#FFFFFF;" d="M1221.49,147.14h-24.668l5.403-19.97h72.008l-5.286,19.97
			h-24.668l-16.681,62.258h-22.906L1221.49,147.14z"/>
		<path style="fill-rule:evenodd;clip-rule:evenodd;fill:#FFFFFF;" d="M1294.085,210.925c-10.65,0-18.854-2.525-24.609-7.577
			c-5.756-5.051-8.634-12.117-8.634-21.203c0-2.035,0.156-4.17,0.47-6.401c0.312-2.232,0.782-4.482,1.41-6.754l11.276-41.819h23.023
			l-11.629,43.463c-0.393,1.333-0.687,2.625-0.881,3.877c-0.196,1.253-0.294,2.546-0.294,3.876c0,3.759,1.096,6.696,3.289,8.811
			c2.191,2.114,5.363,3.171,9.515,3.171c4.464,0,8.145-1.447,11.042-4.346c1.566-1.487,2.896-3.308,3.994-5.462
			c1.096-2.153,2.074-4.875,2.937-8.164l12.217-45.226h23.023l-13.038,48.632c-2.898,10.729-7.166,18.912-12.805,24.551
			c-3.682,3.682-8.066,6.363-13.156,8.047C1306.144,210.082,1300.429,210.925,1294.085,210.925z"/>
		<path style="fill-rule:evenodd;clip-rule:evenodd;fill:#FFFFFF;" d="M1355.051,127.17h26.547c7.988,0,14.566,0.98,19.735,2.937
			c5.168,1.958,9.318,4.504,12.451,7.636c5.95,5.952,8.928,13.979,8.928,24.081c0,6.188-1.137,12.022-3.406,17.503
			c-2.272,5.482-5.639,10.454-10.103,14.918c-4.934,4.934-10.965,8.692-18.09,11.277c-7.127,2.584-15.468,3.876-25.021,3.876
			h-33.126L1355.051,127.17z M1368.794,189.193c4.776,0,9.201-0.705,13.274-2.115c4.07-1.409,7.478-3.483,10.22-6.226
			c2.191-2.191,3.914-4.775,5.168-7.753c1.252-2.975,1.88-6.108,1.88-9.397c0-2.505-0.353-4.679-1.058-6.52
			c-0.705-1.839-1.724-3.425-3.054-4.757c-1.567-1.566-3.642-2.799-6.227-3.701c-2.584-0.899-5.873-1.351-9.867-1.351h-6.578
			l-11.276,41.819H1368.794z"/>
		<path style="fill-rule:evenodd;clip-rule:evenodd;fill:#FFFFFF;" d="M1435.632,127.17h65.899l-5.286,19.382h-43.229l-3.406,12.452
			h39.234l-4.816,17.973h-39.234l-3.524,13.039h43.934l-5.169,19.382h-66.486L1435.632,127.17z"/>
		<path style="fill-rule:evenodd;clip-rule:evenodd;fill:#FFFFFF;" d="M1505.406,127.17h21.261l21.262,45.695l12.335-45.695h22.671
			l-22.084,82.228h-19.97l-22.201-47.339l-12.687,47.339h-22.671L1505.406,127.17z"/>
		<path style="fill-rule:evenodd;clip-rule:evenodd;fill:#FFFFFF;" d="M1602.198,147.14h-24.668l5.403-19.97h72.008l-5.286,19.97
			h-24.668l-16.681,62.258H1585.4L1602.198,147.14z"/>
		<path style="fill-rule:evenodd;clip-rule:evenodd;fill:#FFFFFF;" d="M1670.094,210.807c-8.067,0-15.33-1.312-21.791-3.935
			c-6.46-2.623-11.923-6.323-16.387-11.101l14.684-15.153c8.065,7.44,16.522,11.159,25.373,11.159c2.74,0,4.973-0.547,6.696-1.645
			c1.722-1.096,2.584-2.584,2.584-4.464c0-0.782-0.176-1.507-0.528-2.173c-0.353-0.665-1.039-1.331-2.056-1.997
			c-1.019-0.665-2.408-1.41-4.171-2.232c-1.762-0.822-4.093-1.78-6.989-2.878c-3.289-1.251-6.246-2.563-8.868-3.935
			c-2.625-1.369-4.856-2.937-6.696-4.699c-1.841-1.762-3.271-3.777-4.287-6.049c-1.019-2.271-1.527-4.934-1.527-7.988
			c0-4.071,0.881-7.83,2.644-11.277c1.762-3.445,4.188-6.402,7.282-8.869c3.093-2.467,6.773-4.385,11.042-5.756
			c4.268-1.369,8.908-2.056,13.92-2.056c7.283,0,13.724,1.098,19.324,3.289c5.598,2.193,10.396,5.169,14.39,8.928l-14.097,15.741
			c-3.133-2.74-6.48-4.934-10.043-6.578c-3.564-1.645-7.459-2.467-11.688-2.467c-2.742,0-4.915,0.569-6.52,1.703
			c-1.605,1.136-2.408,2.525-2.408,4.17c0,0.863,0.195,1.586,0.588,2.173c0.391,0.587,1.075,1.195,2.056,1.821
			c0.979,0.627,2.367,1.333,4.17,2.114c1.801,0.784,4.111,1.724,6.931,2.819c3.131,1.175,6.009,2.467,8.634,3.876
			c2.623,1.41,4.875,2.996,6.755,4.757c1.879,1.762,3.348,3.817,4.404,6.167c1.058,2.35,1.586,5.052,1.586,8.105
			c0,4.229-0.862,8.087-2.584,11.57c-1.724,3.485-4.132,6.481-7.225,8.986c-3.095,2.508-6.795,4.445-11.101,5.814
			C1679.882,210.121,1675.183,210.807,1670.094,210.807z"/>
	</g>
</g>
<g>
	<path style="fill:#FFFFFF;" d="M13.744,127.17h23.61l1.527,47.574l28.427-47.809h19.735l3.171,47.809l27.018-47.574h24.786
		L92.33,209.984H71.891l-3.76-46.752l-28.779,46.752H19.03L13.744,127.17z"/>
	<path style="fill:#FFFFFF;" d="M141.313,127.17h65.899l-5.286,19.382h-43.229l-3.406,12.452h39.234l-4.816,17.973h-39.234
		l-3.524,13.039h43.934l-5.169,19.382h-66.486L141.313,127.17z"/>
	<path style="fill:#FFFFFF;" d="M211.088,127.17h22.905l-16.68,62.258h39.234l-5.404,19.97h-62.14L211.088,127.17z"/>
	<path style="fill:#FFFFFF;" d="M298.952,211.042c-5.718,0-10.945-0.843-15.683-2.525c-4.739-1.684-8.83-4.092-12.275-7.225
		c-3.446-3.131-6.128-6.91-8.046-11.336c-1.92-4.423-2.878-9.377-2.878-14.859c0-6.108,1.192-12.117,3.582-18.031
		c2.389-5.912,5.795-11.198,10.22-15.858c4.424-4.659,9.809-8.438,16.152-11.336c6.343-2.896,13.469-4.346,21.379-4.346
		c8.458,0,15.506,1.879,21.145,5.639c5.639,3.759,9.709,8.81,12.217,15.153l-19.735,10.572c-1.645-3.366-3.799-5.971-6.46-7.812
		c-2.664-1.839-6.031-2.76-10.103-2.76c-3.447,0-6.657,0.745-9.633,2.232c-2.977,1.488-5.561,3.485-7.753,5.991
		c-2.193,2.507-3.935,5.385-5.227,8.634c-1.293,3.25-1.938,6.677-1.938,10.278c0,5.248,1.545,9.379,4.64,12.393
		c3.093,3.016,7.028,4.522,11.806,4.522c3.602,0,6.772-0.723,9.515-2.173c2.74-1.448,5.442-3.504,8.105-6.167l15.389,13.626
		c-3.994,4.543-8.771,8.243-14.331,11.102C313.478,209.612,306.782,211.042,298.952,211.042z"/>
	<path style="fill:#FFFFFF;" d="M376.01,210.925c-5.874,0-11.219-0.94-16.034-2.819c-4.816-1.88-8.948-4.464-12.394-7.753
		c-3.446-3.289-6.108-7.184-7.987-11.688c-1.88-4.502-2.819-9.377-2.819-14.624c0-6.265,1.213-12.314,3.642-18.149
		c2.427-5.833,5.814-10.983,10.161-15.447c4.346-4.464,9.515-8.046,15.506-10.749c5.99-2.702,12.549-4.052,19.676-4.052
		c5.873,0,11.218,0.939,16.034,2.819c4.816,1.88,8.945,4.464,12.393,7.753c3.445,3.289,6.108,7.186,7.988,11.688
		c1.879,4.504,2.818,9.379,2.818,14.625c0,6.266-1.215,12.316-3.641,18.149c-2.429,5.835-5.815,10.983-10.161,15.447
		c-4.347,4.463-9.515,8.046-15.506,10.748C389.694,209.573,383.135,210.925,376.01,210.925z M378.023,190.485
		c3.58,0,6.831-0.782,9.751-2.35c2.921-1.565,5.393-3.621,7.417-6.167c2.024-2.544,3.602-5.363,4.732-8.458
		c1.128-3.093,1.693-6.167,1.693-9.221c0-2.584-0.391-4.993-1.169-7.225s-1.927-4.17-3.445-5.814
		c-1.52-1.645-3.388-2.917-5.606-3.818c-2.22-0.899-4.769-1.351-7.65-1.351c-3.583,0-6.813,0.784-9.695,2.349
		c-2.881,1.567-5.354,3.623-7.417,6.167c-2.062,2.546-3.659,5.365-4.788,8.458c-1.131,3.094-1.694,6.167-1.694,9.221
		c0,2.585,0.389,4.992,1.167,7.225c0.778,2.231,1.928,4.17,3.447,5.814c1.518,1.645,3.387,2.919,5.605,3.817
		C372.59,190.035,375.142,190.485,378.023,190.485z"/>
	<path style="fill:#FFFFFF;" d="M438.032,127.17h23.023l10.924,31.834l27.958-31.834h25.607l-22.084,82.228h-22.906l12.569-47.222
		l-29.484,32.186h-0.47l-12.1-31.951l-12.568,46.987h-22.554L438.032,127.17z"/>
	<path style="fill:#FFFFFF;" d="M530.948,127.17h65.899l-5.286,19.382h-43.229l-3.406,12.452h39.234l-4.816,17.973H540.11
		l-3.524,13.039h43.934l-5.169,19.382h-66.486L530.948,127.17z"/>
	<path style="fill:#FFFFFF;" d="M638.312,147.14h-24.668l5.403-19.97h72.008l-5.286,19.97h-24.668l-16.681,62.258h-22.906
		L638.312,147.14z"/>
	<path style="fill:#FFFFFF;" d="M716.074,210.925c-5.874,0-11.219-0.94-16.034-2.819c-4.816-1.88-8.948-4.464-12.394-7.753
		c-3.446-3.289-6.108-7.184-7.987-11.688c-1.88-4.502-2.819-9.377-2.819-14.624c0-6.265,1.213-12.314,3.642-18.149
		c2.427-5.833,5.814-10.983,10.161-15.447c4.346-4.464,9.515-8.046,15.506-10.749c5.99-2.702,12.549-4.052,19.676-4.052
		c5.873,0,11.218,0.939,16.034,2.819c4.816,1.88,8.945,4.464,12.393,7.753c3.445,3.289,6.108,7.186,7.988,11.688
		c1.879,4.504,2.818,9.379,2.818,14.625c0,6.266-1.215,12.316-3.641,18.149c-2.429,5.835-5.815,10.983-10.161,15.447
		c-4.347,4.463-9.515,8.046-15.506,10.748C729.759,209.573,723.199,210.925,716.074,210.925z M718.088,190.485
		c3.58,0,6.831-0.782,9.751-2.35c2.921-1.565,5.393-3.621,7.417-6.167c2.024-2.544,3.602-5.363,4.732-8.458
		c1.128-3.093,1.693-6.167,1.693-9.221c0-2.584-0.391-4.993-1.169-7.225s-1.927-4.17-3.445-5.814
		c-1.52-1.645-3.388-2.917-5.606-3.818c-2.22-0.899-4.769-1.351-7.65-1.351c-3.583,0-6.813,0.784-9.695,2.349
		c-2.881,1.567-5.354,3.623-7.417,6.167c-2.062,2.546-3.659,5.365-4.788,8.458c-1.131,3.094-1.694,6.167-1.694,9.221
		c0,2.585,0.389,4.992,1.167,7.225c0.778,2.231,1.928,4.17,3.447,5.814c1.518,1.645,3.387,2.919,5.605,3.817
		C712.654,190.035,715.206,190.485,718.088,190.485z"/>
</g>
<g>
</g>
<g>
</g>
<g>
</g>
<g>
</g>
<g>
</g>
<g>
</g>
</svg>
