<?xml version="1.0" encoding="iso-8859-1"?>
<!-- Generator: Adobe Illustrator 18.1.1, SVG Export Plug-In . SVG Version: 6.00 Build 0)  -->
<svg version="1.1" id="Layer_1" xmlns="http://www.w3.org/2000/svg" xmlns:xlink="http://www.w3.org/1999/xlink" x="0px" y="0px"
	 viewBox="0 0 918.834 288" style="enable-background:new 0 0 918.834 288;" xml:space="preserve">
<g>
	<path style="fill-rule:evenodd;clip-rule:evenodd;" d="M187.34,196.869c3.545-0.938,7.569-3.161,9.447-5.877
		c5.025-7.242,6.809-26.607,3.305-37.711c-2.852-9.046-7.795-13.46-19.841-13.226c-2.058,0.291-2.865,0.581-4.252,1.472
		c-4.783,2.956-8.194,9.606-9.926,15.677C161.343,173.799,169.152,201.657,187.34,196.869z"/>
	<path style="fill-rule:evenodd;clip-rule:evenodd;" d="M215.975,31.862c3.226-5.567,11.406-19.668,15.337-26.429
		c-11.365-2.88-23.198-4.543-35.384-4.772c-86.481-1.67-158.27,67.63-163.27,156.059c-6.622-0.124-23.981-0.448-30.97-0.579
		c3.27,11.651,7.821,23.113,13.724,34.169c41.854,78.486,135.65,108.264,212.029,68.549c3.166,5.911,11.38,21.298,14.865,27.816
		c8.38-8.972,15.935-19.061,22.414-30.219C309.356,179.648,287.345,80.575,215.975,31.862z M259.628,176.789
		c-9.261,32.161-21.226,48.996-45.357,65.628c-7.595,5.225-12.74,7.573-22.026,11.482c-3.551,1.499-9.035,3.468-11.993,3.688
		c-2.433,0.414-1.486-12.871-1.414-19.093c0.441-1.486,0.334-1.313,1.201-2.009c5.502-2.62,10.033-4.084,17.222-8.276
		c15.19-9.6,28.427-22.588,34.493-41.635c2.012-6.325,3.342-12.864,4.25-19.577c1.719-12.7,0.811-26.691-1.892-35.758
		c-7.742-25.988-21.135-43.148-43.934-53.37c-6.481-2.906-19.6-9.37-37.27-7.664c-9.024,0.877-14.83,2.534-22.265,5.696
		c-21.477,9.158-36.556,25.669-45.359,47.996c-2.341,5.96-3.287,11.416-4.25,19.592c-1.003,8.509,0.703,21.753,2.364,27.417
		c6.443,22.014,15.661,36.139,32.124,47.504c5.434,3.757,10.839,6.315,17.478,9.31c1.47,0.655,5.677,2.554,6.619,1.961
		c1.194-1.055,0.474-19.172,0.474-23.998v-63.044c-1.076-0.158-6.736-0.172-9.925-0.131v76.89
		c-6.408-0.845-23.088-11.637-25.041-16.659v-59.742c-0.657-0.166-12.857-0.531-18.424-0.49c-0.126-4.109,0.299-10.677,3.307-17.147
		h15.117c-0.193-37.533,22.852-48.667,58.587-48.481v21.064c-22.383-0.408-33.929,3.922-33.547,27.417h34.493
		c0.02,1.05-0.033,10.399,0.08,11.29c6.368-11.913,22.492-17.741,36.776-11.782c13.785,5.767,20.335,15.939,24.56,31.843
		c1.071,4.026,1.463,10.684,0.638,18.171c-1.526,14.037-6.503,27.305-18.109,34.715c-15.111,9.627-36.91,3.092-42.999-10.282h-0.474
		v45.055c0,0-0.046,11.22,0.013,14.99c-51.61,0.683-85.295-26.82-100.649-63.471c-10.688-25.518-13.146-58.113-1.892-85.702
		c11.659-28.59,32.985-48.452,60.947-60.24c6.616-2.791,13.275-4.55,20.791-5.627c26.281-3.764,51.672,5.021,63.371,12.085
		c5.076,3.073,7.115,3.881,11.752,7.257c18.616,13.564,32.027,33.838,39.689,58.763c1.752,5.717,2.491,11.449,3.305,18.128
		C263.871,152.08,261.853,169.054,259.628,176.789z"/>
</g>
<g>
	<path style="fill:#060606;" d="M359.678,186.11c-8.065,0-15.326-1.312-21.786-3.935c-6.46-2.622-11.921-6.321-16.384-11.099
		l14.681-15.15c8.063,7.439,16.52,11.157,25.368,11.157c2.74,0,4.972-0.547,6.695-1.645c1.721-1.095,2.583-2.583,2.583-4.463
		c0-0.781-0.176-1.506-0.528-2.173c-0.353-0.664-1.038-1.33-2.055-1.996c-1.019-0.664-2.408-1.409-4.17-2.231
		s-4.092-1.78-6.988-2.878c-3.288-1.251-6.244-2.563-8.867-3.935c-2.624-1.368-4.855-2.935-6.694-4.697
		c-1.841-1.762-3.27-3.777-4.287-6.049c-1.018-2.27-1.526-4.933-1.526-7.986c0-4.07,0.881-7.829,2.643-11.275
		c1.762-3.444,4.188-6.401,7.281-8.867c3.093-2.466,6.772-4.384,11.04-5.755c4.267-1.369,8.906-2.055,13.918-2.055
		c7.281,0,13.721,1.097,19.32,3.289c5.597,2.193,10.394,5.167,14.387,8.926l-14.094,15.738c-3.132-2.74-6.479-4.933-10.041-6.577
		c-3.564-1.645-7.458-2.467-11.687-2.467c-2.741,0-4.914,0.569-6.519,1.703c-1.605,1.136-2.407,2.525-2.407,4.169
		c0,0.862,0.194,1.585,0.587,2.173c0.392,0.587,1.075,1.194,2.056,1.82c0.978,0.627,2.367,1.332,4.169,2.114
		c1.801,0.783,4.111,1.723,6.93,2.818c3.131,1.175,6.008,2.466,8.633,3.876c2.622,1.409,4.874,2.995,6.753,4.757
		c1.879,1.762,3.347,3.816,4.404,6.166c1.057,2.349,1.585,5.05,1.585,8.104c0,4.228-0.862,8.085-2.584,11.568
		c-1.723,3.485-4.13,6.479-7.223,8.984c-3.094,2.507-6.793,4.445-11.099,5.814C369.465,185.423,364.767,186.11,359.678,186.11z"/>
	<path style="fill:#060606;" d="M425.682,122.454h-24.664l5.403-19.966h71.994l-5.285,19.966h-24.663L431.789,184.7h-22.902
		L425.682,122.454z"/>
	<path style="fill:#060606;" d="M498.263,186.227c-10.649,0-18.851-2.524-24.605-7.575c-5.755-5.05-8.632-12.115-8.632-21.199
		c0-2.035,0.155-4.169,0.47-6.4c0.312-2.231,0.781-4.481,1.409-6.752l11.274-41.812h23.02l-11.627,43.455
		c-0.393,1.333-0.687,2.625-0.881,3.875c-0.196,1.254-0.293,2.546-0.293,3.876c0,3.758,1.095,6.694,3.288,8.809
		c2.191,2.114,5.362,3.171,9.513,3.171c4.464,0,8.143-1.448,11.04-4.346c1.565-1.486,2.896-3.307,3.993-5.461
		c1.096-2.152,2.074-4.874,2.937-8.163l12.215-45.216h23.02l-13.037,48.623c-2.897,10.729-7.164,18.909-12.802,24.547
		c-3.681,3.681-8.065,6.362-13.153,8.045C510.319,185.385,504.604,186.227,498.263,186.227z"/>
	<path style="fill:#060606;" d="M559.217,102.488h26.543c7.986,0,14.563,0.98,19.73,2.937c5.168,1.958,9.317,4.503,12.45,7.634
		c5.949,5.951,8.926,13.976,8.926,24.077c0,6.186-1.137,12.02-3.406,17.499c-2.271,5.481-5.638,10.453-10.101,14.916
		c-4.933,4.933-10.963,8.69-18.087,11.274c-7.125,2.584-15.464,3.876-25.016,3.876h-33.12L559.217,102.488z M572.958,164.499
		c4.774,0,9.199-0.704,13.271-2.113c4.07-1.41,7.476-3.483,10.218-6.226c2.191-2.19,3.914-4.774,5.168-7.751
		c1.251-2.974,1.879-6.107,1.879-9.396c0-2.505-0.353-4.677-1.058-6.518c-0.704-1.839-1.723-3.424-3.053-4.757
		c-1.567-1.565-3.642-2.798-6.226-3.699c-2.583-0.899-5.872-1.351-9.865-1.351h-6.577l-11.274,41.81H572.958z"/>
	<path style="fill:#060606;" d="M639.784,102.488h65.888l-5.285,19.379h-43.221l-3.406,12.449h39.228l-4.815,17.969h-39.228
		l-3.523,13.036h43.926l-5.168,19.379h-66.475L639.784,102.488z"/>
	<path style="fill:#060606;" d="M709.546,102.488h21.258l21.258,45.686l12.332-45.686h22.667L764.98,184.7h-19.966l-22.197-47.331
		L710.133,184.7h-22.667L709.546,102.488z"/>
	<path style="fill:#060606;" d="M806.321,122.454h-24.664l5.403-19.966h71.994l-5.285,19.966h-24.663L812.429,184.7h-22.902
		L806.321,122.454z"/>
	<path style="fill:#060606;" d="M874.204,186.11c-8.065,0-15.326-1.312-21.786-3.935c-6.46-2.622-11.921-6.321-16.384-11.099
		l14.681-15.15c8.063,7.439,16.52,11.157,25.368,11.157c2.74,0,4.972-0.547,6.695-1.645c1.721-1.095,2.583-2.583,2.583-4.463
		c0-0.781-0.176-1.506-0.528-2.173c-0.353-0.664-1.038-1.33-2.055-1.996c-1.019-0.664-2.408-1.409-4.17-2.231
		s-4.092-1.78-6.988-2.878c-3.288-1.251-6.244-2.563-8.867-3.935c-2.624-1.368-4.855-2.935-6.694-4.697
		c-1.841-1.762-3.27-3.777-4.287-6.049c-1.018-2.27-1.526-4.933-1.526-7.986c0-4.07,0.881-7.829,2.643-11.275
		c1.762-3.444,4.188-6.401,7.281-8.867c3.093-2.466,6.772-4.384,11.04-5.755c4.267-1.369,8.906-2.055,13.918-2.055
		c7.281,0,13.721,1.097,19.32,3.289c5.597,2.193,10.394,5.167,14.387,8.926l-14.094,15.738c-3.132-2.74-6.479-4.933-10.041-6.577
		c-3.564-1.645-7.458-2.467-11.687-2.467c-2.741,0-4.914,0.569-6.519,1.703c-1.605,1.136-2.407,2.525-2.407,4.169
		c0,0.862,0.194,1.585,0.587,2.173c0.392,0.587,1.075,1.194,2.056,1.82c0.978,0.627,2.367,1.332,4.169,2.114
		c1.801,0.783,4.111,1.723,6.93,2.818c3.131,1.175,6.008,2.466,8.633,3.876c2.622,1.409,4.874,2.995,6.753,4.757
		c1.879,1.762,3.347,3.816,4.404,6.166c1.057,2.349,1.585,5.05,1.585,8.104c0,4.228-0.862,8.085-2.584,11.568
		c-1.723,3.485-4.13,6.479-7.223,8.984c-3.094,2.507-6.793,4.445-11.099,5.814C883.991,185.423,879.293,186.11,874.204,186.11z"/>
</g>
<g>
</g>
<g>
</g>
<g>
</g>
<g>
</g>
<g>
</g>
<g>
</g>
</svg>
